Coordinates
version=1
nRows=20
nColumns=30
inDegrees=yes

Units are S.I. units (second, meters, Newtons, ...)
Angles are in degrees.

endheader
time	floatyaw	floatroll	floatpitch	floatx	floaty	floatz	pro_sup_l	deviation_l	flexion_l	cmc_flexion_l	cmc_abduction_l	mp_flexion_l	ip_flexion_l	2mcp_flexion_l	2mcp_abduction_l	2pm_flexion_l	2md_flexion_l	3mcp_flexion_l	3mcp_abduction_l	3pm_flexion_l	3md_flexion_l	4mcp_flexion_l	4mcp_abduction_l	4pm_flexion_l	4md_flexion_l	5mcp_flexion_l	5mcp_abduction_l	5pm_flexion_l	5md_flexion_l
0.005000	-2.367547	-3.808797	97.590660	0.062570	-0.121170	0.042970	88.648749	20.372235	-2.548958	-2.310837	36.700144	-24.564427	-39.479796	64.960941	9.166343	63.044514	45.733433	66.904099	6.742518	67.550216	47.682373	64.417384	-5.590770	78.525480	54.855866	55.050030	-9.836188	84.712904	50.791488
0.015000	-2.367547	-3.808797	97.590660	0.062335	-0.119299	0.041971	87.765904	20.775011	-3.117469	-2.930627	37.318461	-24.765452	-39.710804	65.202739	9.131727	62.227104	46.124476	67.472638	6.655248	67.476535	48.068993	65.551744	-5.665081	78.401040	55.650654	56.338489	-9.277991	84.663719	49.972840
0.025000	-2.367547	-3.808797	97.590660	0.062052	-0.116664	0.041033	87.100157	21.202792	-3.822323	-3.605159	38.007881	-24.766975	-39.663403	65.351701	9.133846	61.289440	46.251703	67.758620	6.621218	67.147340	48.507975	66.264234	-5.678064	78.110543	56.336458	57.351825	-8.983161	84.044183	49.174927
0.035000	-2.367547	-3.808797	97.590660	0.061848	-0.113352	0.040315	86.721326	21.662683	-4.457133	-4.292970	38.783120	-24.553713	-39.399589	65.492231	9.141075	60.301759	46.172670	67.936756	6.627731	66.584281	48.995385	66.744587	-5.654256	77.661602	56.963967	58.032026	-8.883556	83.174072	48.527697
0.045000	-2.367547	-3.808797	97.590660	0.061785	-0.109664	0.039903	86.692087	22.160135	-4.851702	-4.874920	39.589806	-24.165950	-39.053155	65.593105	9.109845	59.315428	45.959673	68.063793	6.651934	65.841442	49.471061	67.070007	-5.617684	77.087359	57.556308	58.343428	-8.901568	82.279389	48.057817
0.055000	-2.367547	-3.808797	97.590660	0.061858	-0.106094	0.039772	86.976248	22.686669	-4.936952	-5.247063	40.329210	-23.694714	-38.775754	65.599820	9.013245	58.374967	45.693533	68.127905	6.672665	65.030838	49.863771	67.247757	-5.585698	76.477493	58.110322	58.324264	-8.971063	81.510680	47.743555
0.065000	-2.367547	-3.808797	97.590660	0.062001	-0.103179	0.039794	87.414889	23.208692	-4.764632	-5.385226	40.908045	-23.249827	-38.674133	65.495517	8.855938	57.521301	45.450579	68.100803	6.677721	64.300448	50.128566	67.268160	-5.566963	75.958090	58.605810	58.084188	-9.039920	80.963572	47.557014
0.075000	-2.367547	-3.808797	97.590660	0.062112	-0.101309	0.039800	87.784076	23.666813	-4.467476	-5.347880	41.280229	-22.917150	-38.771505	65.307877	8.670760	56.791529	45.288645	67.968133	6.665265	63.782400	50.264352	67.136999	-5.562680	75.641290	59.020787	57.756918	-9.070450	80.683656	47.479306
0.085000	-2.367547	-3.808797	97.590660	0.062086	-0.100585	0.039669	87.896448	23.989488	-4.183411	-5.228112	41.458267	-22.729554	-39.013766	65.079223	8.501301	56.216481	45.238818	67.734801	6.640678	63.545082	50.307456	66.879395	-5.569437	75.579328	59.345779	57.439841	-9.044482	80.662679	47.496007
0.095000	-2.367547	-3.808797	97.590660	0.061862	-0.100800	0.039383	87.683253	24.116988	-3.990720	-5.098332	41.495490	-22.664933	-39.310502	64.836155	8.381218	55.812742	45.304818	67.418391	6.611720	63.574060	50.308028	66.529774	-5.582117	75.745980	59.589654	57.159904	-8.966897	80.840174	47.586993
0.105000	-2.367547	-3.808797	97.590660	0.061440	-0.101548	0.039026	87.210337	24.024931	-3.889989	-4.985122	41.456107	-22.666836	-39.581034	64.582300	8.321225	55.571725	45.468090	67.044011	6.584656	63.787394	50.305273	66.125162	-5.595907	76.050325	59.775113	56.885563	-8.860344	81.119213	47.721330
0.115000	-2.367547	-3.808797	97.590660	0.060878	-0.102400	0.038726	86.627201	23.735657	-3.833047	-4.879262	41.390671	-22.674640	-39.782269	64.310599	8.308943	55.457323	45.696555	66.642430	6.562601	64.075805	50.315926	65.704311	-5.607241	76.375934	59.928290	56.569199	-8.752771	81.396794	47.861656
0.125000	-2.367547	-3.808797	97.590660	0.060260	-0.103058	0.038585	86.087553	23.311759	-3.769365	-4.761221	41.325681	-22.650564	-39.913024	64.016840	8.319176	55.420146	45.954819	66.245756	6.545838	64.349108	50.338604	65.304199	-5.614041	76.630046	60.068079	56.184841	-8.665625	81.599880	47.976068
0.135000	-2.367547	-3.808797	97.590660	0.059663	-0.103420	0.038636	85.687324	22.835182	-3.677307	-4.620821	41.265857	-22.593571	-40.000807	63.702408	8.327508	55.421127	46.212358	65.878464	6.533177	64.567551	50.365586	64.950191	-5.615645	76.780360	60.198706	55.737837	-8.608381	81.710743	48.050642
0.145000	-2.367547	-3.808797	97.590660	0.059129	-0.103546	0.038836	85.445022	22.381991	-3.566874	-4.462549	41.202554	-22.535067	-40.080881	63.368586	8.320094	55.447279	46.447361	65.548887	6.523381	64.744153	50.392210	64.646824	-5.612558	76.860239	60.308188	55.250096	-8.579598	81.768367	48.095330
0.155000	-2.367547	-3.808797	97.590660	0.058664	-0.103572	0.039098	85.320964	22.003762	-3.462703	-4.299981	41.122661	-22.519621	-40.178291	63.012246	8.296037	55.508025	46.647669	65.248124	6.515978	64.920402	50.420441	64.378293	-5.605997	76.940214	60.375141	54.740559	-8.571646	81.846100	48.140139
0.165000	-2.367547	-3.808797	97.590660	0.058250	-0.103620	0.039336	85.254439	21.721433	-3.385130	-4.146974	41.015418	-22.581755	-40.300330	62.629030	8.263281	55.616018	46.811680	64.958190	6.511202	65.132477	50.458667	64.119749	-5.597321	77.084137	60.382812	54.216708	-8.576033	82.018179	48.223328
0.175000	-2.367547	-3.808797	97.590660	0.057862	-0.103751	0.039491	85.196431	21.530097	-3.341401	-4.011296	40.876248	-22.731021	-40.440101	62.221313	8.231912	55.768107	46.949153	64.664591	6.509349	65.388429	50.519995	63.851968	-5.587589	77.316401	60.332920	53.678969	-8.587136	82.330049	48.376120
0.185000	-2.367547	-3.808797	97.590660	0.057488	-0.103962	0.039552	85.125170	21.408708	-3.327688	-3.892621	40.707020	-22.951334	-40.585861	61.802965	8.208851	55.940952	47.078753	64.365451	6.510168	65.667194	50.618910	63.570256	-5.577496	77.616714	60.249679	53.129627	-8.603210	82.781949	48.609459
0.195000	-2.367547	-3.808797	97.590660	0.057127	-0.104211	0.039544	85.043900	21.329313	-3.335531	-3.784277	40.513135	-23.211782	-40.729300	61.395598	8.195940	56.103752	47.220372	64.071854	6.512784	65.935536	50.765685	63.283597	-5.567641	77.939966	60.170087	52.577583	-8.624968	83.329249	48.908294
